<svg width="100" height="100" viewBox="0 0 100 100" fill="none" xmlns="http://www.w3.org/2000/svg">
<circle cx="50" cy="50" r="50" fill="url(#paint0_linear_118_261)"/>
<g clip-path="url(#clip0_118_261)">
<path d="M69.1048 46.2431C68.5193 50.2832 66.4085 52.7273 62.7726 53.5754C65.1577 54.8093 66.7776 56.3942 67.6323 58.3302C68.487 60.2662 68.401 62.7053 67.3743 65.6475C66.842 67.1485 66.1549 68.4156 65.3129 69.449C64.4709 70.4824 63.5336 71.2738 62.5009 71.8231C61.4682 72.3725 60.2605 72.7463 58.8778 72.9446C57.4951 73.1429 56.0863 73.1911 54.6514 73.089C53.2165 72.987 51.5999 72.7596 49.8017 72.4067L47.7513 80.6948L42.746 79.4566L44.7641 71.2985C43.0307 70.8696 41.7116 70.5318 40.8069 70.285L38.7807 78.4756L33.7753 77.2374L35.8256 68.9493C35.4356 68.8528 34.8519 68.7027 34.0745 68.4989C33.2971 68.2951 32.7026 68.1422 32.2909 68.0404L25.7904 66.4323L28.2694 60.7336L31.8772 61.6261C32.9606 61.8941 33.7256 61.497 34.1724 60.4348L37.4046 47.3689L37.9246 47.4975C37.8 47.4437 37.6293 47.39 37.4126 47.3364L39.7202 38.0082C39.8031 36.4651 39.0211 35.4898 37.3743 35.0824L33.7665 34.1899L35.0851 28.8595L41.9676 30.5966C43.3544 30.9397 44.408 31.1888 45.1284 31.344L47.1546 23.1534L52.1599 24.3917L50.174 32.4198C51.9615 32.816 53.2886 33.1213 54.1553 33.3357L56.1252 25.3726L61.1306 26.6108L59.1044 34.8014C60.7787 35.3766 62.2352 35.9955 63.4738 36.6584C64.7125 37.3212 65.8162 38.1116 66.7848 39.0296C67.7534 39.9475 68.4382 41.0137 68.8391 42.2281C69.24 43.4425 69.3286 44.7808 69.1048 46.2431ZM57.7348 62.2282C57.9277 61.4481 57.9367 60.7145 57.7618 60.0274C57.5869 59.3403 57.3093 58.7428 56.9291 58.2348C56.5489 57.7269 56.0076 57.2423 55.3054 56.7812C54.6032 56.32 53.9431 55.9441 53.3253 55.6532C52.7074 55.3624 51.9298 55.0666 50.9924 54.7657C50.0551 54.4649 49.3156 54.2474 48.7739 54.1134C48.2322 53.9794 47.5307 53.8174 46.6695 53.6273C45.8082 53.4373 45.2909 53.3208 45.1176 53.2779L42.3999 64.2637C42.5732 64.3066 42.9728 64.4112 43.5985 64.5775C44.2242 64.7437 44.7429 64.8778 45.1546 64.9797C45.5663 65.0815 46.1445 65.2073 46.8892 65.357C47.634 65.5068 48.2785 65.6202 48.8228 65.6974C49.3671 65.7746 50.0074 65.8352 50.7438 65.8794C51.4802 65.9236 52.119 65.9207 52.6602 65.8706C53.2015 65.8206 53.7724 65.7204 54.3729 65.57C54.9735 65.4196 55.4818 65.2005 55.898 64.9125C56.3141 64.6246 56.6868 64.2569 57.0159 63.8094C57.3451 63.362 57.5847 62.8349 57.7348 62.2282ZM59.2543 46.1862C59.4312 45.4711 59.4526 44.8038 59.3184 44.1843C59.1842 43.5647 58.9664 43.028 58.6648 42.574C58.3632 42.1199 57.9182 41.6879 57.3298 41.2779C56.7414 40.868 56.1897 40.5418 55.6748 40.2994C55.1599 40.0571 54.5151 39.8056 53.7403 39.5449C52.9654 39.2843 52.3438 39.1017 51.8752 38.9973C51.4067 38.8929 50.819 38.759 50.1121 38.5956C49.4052 38.4323 48.9759 38.3318 48.8242 38.2943L46.3558 48.2725C46.4641 48.2993 46.8366 48.3972 47.4731 48.5662C48.1096 48.7351 48.6134 48.8598 48.9845 48.9401C49.3555 49.0204 49.9026 49.1327 50.6257 49.2771C51.3487 49.4215 51.9594 49.5093 52.4575 49.5405C52.9556 49.5718 53.5431 49.5906 54.2198 49.5971C54.8966 49.6035 55.4716 49.5331 55.9449 49.3858C56.4183 49.2384 56.8915 49.0451 57.3646 48.8057C57.8377 48.5663 58.2334 48.2216 58.5517 47.7714C58.87 47.3213 59.1042 46.7929 59.2543 46.1862Z" fill="black"/>
</g>
<defs>
<linearGradient id="paint0_linear_118_261" x1="18.5" y1="3.5" x2="100" y2="100" gradientUnits="userSpaceOnUse">
<stop stop-color="#9BFE36"/>
<stop offset="1" stop-color="#FAFE36"/>
</linearGradient>
<clipPath id="clip0_118_261">
<rect width="60" height="60" fill="white" transform="translate(28 14) rotate(13.8948)"/>
</clipPath>
</defs>
</svg>
