<svg width="100" height="100" viewBox="0 0 100 100" fill="none" xmlns="http://www.w3.org/2000/svg">
<g filter="url(#filter0_b_118_268)">
<circle cx="50" cy="50" r="50" fill="white" fill-opacity="0.2"/>
</g>
<path d="M65.6032 59.6763C65.6032 63.0915 64.4927 66.0324 62.2717 68.4989C60.0507 70.9654 57.1657 72.4888 53.6166 73.0692V78.9286C53.6166 79.2411 53.5161 79.4978 53.3152 79.6987C53.1143 79.8996 52.8576 80 52.5451 80H48.025C47.7349 80 47.4837 79.894 47.2717 79.6819C47.0596 79.4699 46.9536 79.2187 46.9536 78.9286V73.0692C45.4804 72.8683 44.0574 72.5223 42.6846 72.0312C41.3119 71.5402 40.1791 71.0435 39.2862 70.5413C38.3933 70.0391 37.5675 69.5033 36.8085 68.9342C36.0496 68.365 35.5306 67.9464 35.2516 67.6786C34.9726 67.4107 34.7773 67.2098 34.6657 67.0759C34.2862 66.6071 34.2639 66.1496 34.5987 65.7031L38.0474 61.183C38.2036 60.9598 38.4603 60.8259 38.8175 60.7812C39.1523 60.7366 39.4201 60.8371 39.621 61.0826L39.688 61.1496C42.2103 63.3594 44.9224 64.7545 47.8241 65.3348C48.65 65.5134 49.4759 65.6027 50.3018 65.6027C52.1099 65.6027 53.7003 65.1228 55.073 64.1629C56.4458 63.2031 57.1322 61.8415 57.1322 60.0781C57.1322 59.4531 56.9648 58.8616 56.63 58.3036C56.2951 57.7455 55.9212 57.2768 55.5083 56.8973C55.0954 56.5179 54.4425 56.0993 53.5496 55.6417C52.6567 55.1842 51.9201 54.827 51.3398 54.5703C50.7594 54.3136 49.8666 53.9509 48.6612 53.4821C47.7907 53.125 47.1043 52.846 46.6021 52.6451C46.0998 52.4442 45.4134 52.1484 44.5429 51.7578C43.6724 51.3672 42.9748 51.0212 42.4503 50.7199C41.9257 50.4185 41.2951 50.0223 40.5585 49.5312C39.8219 49.0402 39.2248 48.5658 38.7672 48.1083C38.3096 47.6507 37.8241 47.1038 37.3108 46.4676C36.7974 45.8315 36.4012 45.1842 36.1221 44.5257C35.8431 43.8672 35.6087 43.125 35.419 42.2991C35.2293 41.4732 35.1344 40.6027 35.1344 39.6875C35.1344 36.6071 36.2282 33.9062 38.4157 31.5848C40.6032 29.2634 43.4491 27.7679 46.9536 27.0982V21.0714C46.9536 20.7812 47.0596 20.5301 47.2717 20.3181C47.4837 20.106 47.7349 20 48.025 20H52.5451C52.8576 20 53.1143 20.1004 53.3152 20.3013C53.5161 20.5022 53.6166 20.7589 53.6166 21.0714V26.9643C54.8889 27.0982 56.1221 27.3549 57.3163 27.7344C58.5105 28.1138 59.4815 28.4877 60.2293 28.856C60.977 29.2243 61.6858 29.6429 62.3554 30.1116C63.025 30.5804 63.4603 30.904 63.6612 31.0826C63.8621 31.2612 64.0295 31.4174 64.1634 31.5513C64.5429 31.9531 64.5987 32.3772 64.3308 32.8237L61.6188 37.7121C61.4402 38.0469 61.1835 38.2254 60.8487 38.2478C60.5362 38.3147 60.2349 38.2366 59.9447 38.0134C59.8777 37.9464 59.7159 37.8125 59.4592 37.6116C59.2025 37.4107 58.7672 37.115 58.1534 36.7243C57.5396 36.3337 56.8866 35.9766 56.1947 35.6529C55.5027 35.3292 54.6712 35.0391 53.7003 34.7824C52.7293 34.5257 51.775 34.3973 50.8375 34.3973C48.717 34.3973 46.9871 34.8772 45.6478 35.8371C44.3085 36.7969 43.6389 38.0357 43.6389 39.5536C43.6389 40.1339 43.7337 40.6696 43.9235 41.1607C44.1132 41.6518 44.4425 42.115 44.9112 42.5502C45.38 42.9855 45.8208 43.3538 46.2337 43.6551C46.6467 43.9565 47.2717 44.3025 48.1087 44.6931C48.9458 45.0837 49.621 45.385 50.1344 45.5971C50.6478 45.8092 51.4291 46.1161 52.4782 46.5179C53.6612 46.9643 54.5652 47.3158 55.1902 47.5725C55.8152 47.8292 56.6634 48.2199 57.7349 48.7444C58.8063 49.269 59.6489 49.7433 60.2628 50.1674C60.8766 50.5915 61.5686 51.1496 62.3387 51.8415C63.1087 52.5335 63.7003 53.2422 64.1132 53.9676C64.5262 54.6931 64.8777 55.5469 65.1679 56.529C65.4581 57.5112 65.6032 58.5603 65.6032 59.6763Z" fill="white"/>
<defs>
<filter id="filter0_b_118_268" x="-20" y="-20" width="140" height="140" filterUnits="userSpaceOnUse" color-interpolation-filters="sRGB">
<feFlood flood-opacity="0" result="BackgroundImageFix"/>
<feGaussianBlur in="BackgroundImageFix" stdDeviation="10"/>
<feComposite in2="SourceAlpha" operator="in" result="effect1_backgroundBlur_118_268"/>
<feBlend mode="normal" in="SourceGraphic" in2="effect1_backgroundBlur_118_268" result="shape"/>
</filter>
</defs>
</svg>
